<svg width="30" height="30" viewBox="0 0 30 30" fill="none" xmlns="http://www.w3.org/2000/svg">
<path d="M21.3716 11.724C21.3837 11.606 21.2912 11.5035 21.1726 11.5035H17.3487V8.8503C17.3487 7.85389 18.0091 7.62158 18.4743 7.62158C18.8566 7.62158 20.5467 7.62158 21.1302 7.62158C21.2407 7.62158 21.3291 7.53204 21.3291 7.42158V3.44037C21.3291 3.33021 21.24 3.2408 21.1299 3.24037L17.3974 3.2258C13.0328 3.2258 12.0396 6.49287 12.0396 8.5836V11.5035H9.71547C9.60502 11.5035 9.51547 11.5931 9.51547 11.7035V15.8173C9.51547 15.9278 9.60502 16.0173 9.71547 16.0173H12.0396C12.0396 21.2364 12.0396 27.4188 12.0396 28.5923C12.0396 28.7028 12.1291 28.7898 12.2396 28.7898H17.1487C17.2592 28.7898 17.3487 28.7026 17.3487 28.5922C17.3487 27.4125 17.3487 21.1768 17.3487 16.0173H20.7506C20.8532 16.0173 20.9391 15.9398 20.9496 15.8377L21.3716 11.724Z" stroke="white" stroke-width="2"/>
</svg>
