<svg width="30" height="30" viewBox="0 0 30 30" fill="none" xmlns="http://www.w3.org/2000/svg">
<path d="M21.3716 11.7237C21.3837 11.6058 21.2912 11.5033 21.1726 11.5033H17.3487V8.85009C17.3487 7.85367 18.0091 7.62137 18.4743 7.62137C18.8566 7.62137 20.5468 7.62137 21.1302 7.62137C21.2407 7.62137 21.3291 7.53182 21.3291 7.42137V3.44015C21.3291 3.33 21.2401 3.24058 21.1299 3.24015L17.3974 3.22559C13.0329 3.22559 12.0396 6.49266 12.0396 8.58339V11.5033H9.71549C9.60503 11.5033 9.51549 11.5929 9.51549 11.7033V15.8171C9.51549 15.9276 9.60503 16.0171 9.71549 16.0171H12.0396C12.0396 21.2361 12.0396 27.4186 12.0396 28.5921C12.0396 28.7026 12.1292 28.7896 12.2396 28.7896H17.1487C17.2592 28.7896 17.3487 28.7024 17.3487 28.592C17.3487 27.4122 17.3487 21.1766 17.3487 16.0171H20.7507C20.8532 16.0171 20.9391 15.9395 20.9496 15.8375L21.3716 11.7237Z" stroke="#17C1BC" stroke-width="2"/>
</svg>
