<svg width="15" height="28" viewBox="0 0 15 28" fill="none" xmlns="http://www.w3.org/2000/svg">
<path d="M13.3716 9.72395C13.3837 9.60604 13.2912 9.50354 13.1726 9.50354H9.34872V6.8503C9.34872 5.85389 10.0091 5.62158 10.4743 5.62158C10.8566 5.62158 12.5467 5.62158 13.1302 5.62158C13.2407 5.62158 13.3291 5.53204 13.3291 5.42158V1.44037C13.3291 1.33021 13.24 1.2408 13.1299 1.24037L9.3974 1.2258C5.03284 1.2258 4.03959 4.49287 4.03959 6.5836V9.50354H1.71547C1.60502 9.50354 1.51547 9.59309 1.51547 9.70354V13.8173C1.51547 13.9278 1.60502 14.0173 1.71547 14.0173H4.03959C4.03959 19.2364 4.03959 25.4188 4.03959 26.5923C4.03959 26.7028 4.12914 26.7898 4.23959 26.7898H9.14872C9.25917 26.7898 9.34872 26.7026 9.34872 26.5922C9.34872 25.4125 9.34872 19.1768 9.34872 14.0173H12.7506C12.8532 14.0173 12.9391 13.9398 12.9496 13.8377L13.3716 9.72395Z" stroke="white" stroke-width="2"/>
</svg>
