<svg width="32" height="32" viewBox="0 0 32 32" fill="none" xmlns="http://www.w3.org/2000/svg">
<path d="M15.9972 2.34668C12.2891 2.34668 11.8242 2.3624 10.3679 2.42884C8.91466 2.49518 7.92216 2.72595 7.05365 3.06349C6.15583 3.41241 5.39442 3.87926 4.63539 4.63828C3.87636 5.39731 3.40951 6.15872 3.06059 7.05654C2.72306 7.92499 2.49229 8.9175 2.42595 10.3707C2.3595 11.827 2.34384 12.292 2.34384 16C2.34384 19.708 2.3595 20.1729 2.42595 21.6292C2.49229 23.0824 2.72306 24.0749 3.06059 24.9434C3.40951 25.8412 3.87636 26.6026 4.63539 27.3617C5.39442 28.1207 6.15583 28.5876 7.05365 28.9365C7.92216 29.274 8.91466 29.5048 10.3679 29.5711C11.8242 29.6375 12.2891 29.6533 15.9972 29.6533C19.7051 29.6533 20.1701 29.6375 21.6264 29.5711C23.0796 29.5048 24.0721 29.274 24.9405 28.9365C25.8384 28.5876 26.5998 28.1207 27.3589 27.3617C28.1179 26.6026 28.5847 25.8412 28.9337 24.9434C29.2711 24.0749 29.502 23.0824 29.5683 21.6292C29.6347 20.1729 29.6504 19.708 29.6504 16C29.6504 12.292 29.6347 11.827 29.5683 10.3707C29.502 8.9175 29.2711 7.92499 28.9337 7.05654C28.5847 6.15872 28.1179 5.39731 27.3589 4.63828C26.5998 3.87926 25.8384 3.41241 24.9405 3.06349C24.0721 2.72595 23.0796 2.49518 21.6264 2.42884C20.1701 2.3624 19.7051 2.34668 15.9972 2.34668ZM15.9972 4.80678C19.6427 4.80678 20.0745 4.82066 21.5142 4.88634C22.8454 4.9471 23.5683 5.16952 24.0494 5.35645C24.6867 5.60412 25.1416 5.90004 25.6193 6.37778C26.0971 6.85553 26.393 7.3104 26.6407 7.94765C26.8276 8.42875 27.0501 9.15169 27.1108 10.4829C27.1764 11.9226 27.1904 12.3544 27.1904 16C27.1904 19.6455 27.1764 20.0774 27.1108 21.5171C27.0501 22.8482 26.8276 23.5712 26.6407 24.0523C26.393 24.6896 26.0971 25.1444 25.6193 25.6221C25.1416 26.0999 24.6867 26.3958 24.0494 26.6435C23.5683 26.8305 22.8454 27.0529 21.5142 27.1136C20.0748 27.1793 19.643 27.1932 15.9972 27.1932C12.3513 27.1932 11.9196 27.1793 10.48 27.1136C9.14885 27.0529 8.42592 26.8305 7.94481 26.6435C7.30751 26.3958 6.85269 26.0999 6.37489 25.6221C5.89715 25.1444 5.60123 24.6896 5.35361 24.0523C5.16663 23.5712 4.9442 22.8482 4.88345 21.5171C4.81776 20.0774 4.80389 19.6455 4.80389 16C4.80389 12.3544 4.81776 11.9226 4.88345 10.4829C4.9442 9.15169 5.16663 8.42875 5.35361 7.94765C5.60123 7.3104 5.89715 6.85553 6.37489 6.37778C6.85269 5.90004 7.30751 5.60412 7.94481 5.35645C8.42592 5.16952 9.14885 4.9471 10.48 4.88634C11.9197 4.82066 12.3516 4.80678 15.9972 4.80678Z" fill="#E59B06"/>
<path d="M15.9957 20.551C13.4821 20.551 11.4446 18.5134 11.4446 15.9999C11.4446 13.4864 13.4821 11.4488 15.9957 11.4488C18.5092 11.4488 20.5467 13.4864 20.5467 15.9999C20.5467 18.5134 18.5092 20.551 15.9957 20.551ZM15.9957 8.98877C12.1235 8.98877 8.98451 12.1277 8.98451 15.9999C8.98451 19.8721 12.1235 23.0111 15.9957 23.0111C19.8678 23.0111 23.0068 19.8721 23.0068 15.9999C23.0068 12.1277 19.8678 8.98877 15.9957 8.98877Z" fill="#E59B06"/>
<path d="M24.9253 8.71161C24.9253 9.61648 24.1917 10.35 23.2869 10.35C22.382 10.35 21.6485 9.61648 21.6485 8.71161C21.6485 7.80674 22.382 7.07324 23.2869 7.07324C24.1917 7.07324 24.9253 7.80674 24.9253 8.71161Z" fill="#E59B06"/>
</svg>
