<svg width="28" height="28" viewBox="0 0 28 28" fill="none" xmlns="http://www.w3.org/2000/svg">
<path d="M13.9972 0.34668C10.2891 0.34668 9.82416 0.362397 8.3679 0.428842C6.91466 0.495179 5.92216 0.725949 5.05365 1.06349C4.15583 1.41241 3.39442 1.87926 2.63539 2.63828C1.87636 3.39731 1.40951 4.15872 1.06059 5.05654C0.723057 5.92499 0.492287 6.9175 0.42595 8.37073C0.359504 9.827 0.343842 10.292 0.343842 14C0.343842 17.708 0.359504 18.1729 0.42595 19.6292C0.492287 21.0824 0.723057 22.0749 1.06059 22.9434C1.40951 23.8412 1.87636 24.6026 2.63539 25.3617C3.39442 26.1207 4.15583 26.5876 5.05365 26.9365C5.92216 27.274 6.91466 27.5048 8.3679 27.5711C9.82416 27.6375 10.2891 27.6533 13.9972 27.6533C17.7051 27.6533 18.1701 27.6375 19.6264 27.5711C21.0796 27.5048 22.0721 27.274 22.9405 26.9365C23.8384 26.5876 24.5998 26.1207 25.3589 25.3617C26.1179 24.6026 26.5847 23.8412 26.9337 22.9434C27.2711 22.0749 27.502 21.0824 27.5683 19.6292C27.6347 18.1729 27.6504 17.708 27.6504 14C27.6504 10.292 27.6347 9.827 27.5683 8.37073C27.502 6.9175 27.2711 5.92499 26.9337 5.05654C26.5847 4.15872 26.1179 3.39731 25.3589 2.63828C24.5998 1.87926 23.8384 1.41241 22.9405 1.06349C22.0721 0.725949 21.0796 0.495179 19.6264 0.428842C18.1701 0.362397 17.7051 0.34668 13.9972 0.34668ZM13.9972 2.80678C17.6427 2.80678 18.0745 2.82066 19.5142 2.88634C20.8454 2.9471 21.5683 3.16952 22.0494 3.35645C22.6867 3.60412 23.1416 3.90004 23.6193 4.37778C24.0971 4.85553 24.393 5.3104 24.6407 5.94765C24.8276 6.42875 25.0501 7.15169 25.1108 8.48287C25.1764 9.92255 25.1904 10.3544 25.1904 14C25.1904 17.6455 25.1764 18.0774 25.1108 19.5171C25.0501 20.8482 24.8276 21.5712 24.6407 22.0523C24.393 22.6896 24.0971 23.1444 23.6193 23.6221C23.1416 24.0999 22.6867 24.3958 22.0494 24.6435C21.5683 24.8305 20.8454 25.0529 19.5142 25.1136C18.0748 25.1793 17.643 25.1932 13.9972 25.1932C10.3513 25.1932 9.91955 25.1793 8.48003 25.1136C7.14885 25.0529 6.42592 24.8305 5.94481 24.6435C5.30751 24.3958 4.85269 24.0999 4.37489 23.6221C3.89715 23.1444 3.60123 22.6896 3.35361 22.0523C3.16663 21.5712 2.9442 20.8482 2.88345 19.5171C2.81776 18.0774 2.80389 17.6455 2.80389 14C2.80389 10.3544 2.81776 9.92255 2.88345 8.48287C2.9442 7.15169 3.16663 6.42875 3.35361 5.94765C3.60123 5.3104 3.89715 4.85553 4.37489 4.37778C4.85269 3.90004 5.30751 3.60412 5.94481 3.35645C6.42592 3.16952 7.14885 2.9471 8.48003 2.88634C9.91971 2.82066 10.3516 2.80678 13.9972 2.80678Z" fill="white"/>
<path d="M13.9957 18.551C11.4822 18.551 9.44457 16.5134 9.44457 13.9999C9.44457 11.4864 11.4822 9.44882 13.9957 9.44882C16.5092 9.44882 18.5468 11.4864 18.5468 13.9999C18.5468 16.5134 16.5092 18.551 13.9957 18.551ZM13.9957 6.98877C10.1235 6.98877 6.98453 10.1277 6.98453 13.9999C6.98453 17.8721 10.1235 21.0111 13.9957 21.0111C17.8678 21.0111 21.0068 17.8721 21.0068 13.9999C21.0068 10.1277 17.8678 6.98877 13.9957 6.98877Z" fill="white"/>
<path d="M22.9253 6.71186C22.9253 7.61673 22.1917 8.35023 21.2868 8.35023C20.382 8.35023 19.6485 7.61673 19.6485 6.71186C19.6485 5.80699 20.382 5.07349 21.2868 5.07349C22.1917 5.07349 22.9253 5.80699 22.9253 6.71186Z" fill="white"/>
</svg>
