<svg width="19" height="19" viewBox="0 0 19 19" fill="none" xmlns="http://www.w3.org/2000/svg">
<g clip-path="url(#clip0_3086_305)">
<path d="M17.3271 4.72464C17.2921 4.67775 17.2482 4.6382 17.198 4.60827C17.1477 4.57834 17.092 4.5586 17.0341 4.55019C16.9762 4.54178 16.9172 4.54486 16.8605 4.55926C16.8038 4.57366 16.7505 4.59909 16.7036 4.6341L9.52075 9.99566C9.49506 10.0149 9.4638 10.0253 9.43169 10.0253C9.39957 10.0253 9.36832 10.0149 9.34262 9.99566L2.30075 4.61035C2.25426 4.57487 2.20124 4.5489 2.14471 4.53391C2.08818 4.51893 2.02925 4.51522 1.97129 4.52301C1.91333 4.5308 1.85747 4.54992 1.8069 4.5793C1.75634 4.60868 1.71205 4.64772 1.67657 4.69421C1.64109 4.74071 1.61512 4.79373 1.60013 4.85026C1.58515 4.90679 1.58144 4.96571 1.58923 5.02367C1.59702 5.08163 1.61615 5.13749 1.64552 5.18806C1.6749 5.23863 1.71395 5.28292 1.76044 5.31839L7.29716 9.55332L1.8213 13.6799C1.77412 13.7151 1.73434 13.7592 1.70422 13.8098C1.67411 13.8603 1.65424 13.9163 1.64577 13.9745C1.63729 14.0328 1.64037 14.0921 1.65482 14.1492C1.66927 14.2062 1.69482 14.2599 1.73001 14.307C1.76519 14.3542 1.80933 14.394 1.85988 14.4241C1.91044 14.4542 1.96644 14.4741 2.02468 14.4826C2.08291 14.491 2.14225 14.488 2.19929 14.4735C2.25634 14.4591 2.30998 14.4335 2.35716 14.3983L8.03192 10.1144L8.80083 10.7082C8.98011 10.8454 9.19922 10.9205 9.425 10.9221C9.65078 10.9237 9.87093 10.8517 10.0522 10.7171L10.8597 10.1144L16.6012 14.3983C16.6481 14.4333 16.7014 14.4587 16.7581 14.4731C16.8148 14.4875 16.8738 14.4906 16.9317 14.4822C16.9896 14.4738 17.0452 14.454 17.0955 14.4241C17.1458 14.3942 17.1897 14.3547 17.2247 14.3078C17.2596 14.2609 17.2851 14.2076 17.2994 14.1509C17.3138 14.0942 17.3169 14.0352 17.3085 13.9773C17.3001 13.9194 17.2804 13.8637 17.2504 13.8135C17.2205 13.7632 17.181 13.7193 17.1341 13.6843L11.6033 9.55183L17.2365 5.34363C17.33 5.27307 17.3919 5.16856 17.4088 5.05271C17.4257 4.93687 17.3964 4.81901 17.3271 4.72464V4.72464Z" fill="#282828"/>
<path d="M16.7734 2.82031H2.22656C1.63604 2.82031 1.06971 3.0549 0.652145 3.47246C0.234584 3.89002 0 4.45635 0 5.04688L0 13.9531C0 14.5436 0.234584 15.11 0.652145 15.5275C1.06971 15.9451 1.63604 16.1797 2.22656 16.1797H16.7734C17.364 16.1797 17.9303 15.9451 18.3479 15.5275C18.7654 15.11 19 14.5436 19 13.9531V5.04688C19 4.45635 18.7654 3.89002 18.3479 3.47246C17.9303 3.0549 17.364 2.82031 16.7734 2.82031ZM18.1094 13.9531C18.1094 14.3074 17.9686 14.6472 17.7181 14.8978C17.4676 15.1483 17.1278 15.2891 16.7734 15.2891H2.22656C1.87225 15.2891 1.53245 15.1483 1.28191 14.8978C1.03138 14.6472 0.890625 14.3074 0.890625 13.9531V5.04688C0.890625 4.69256 1.03138 4.35276 1.28191 4.10222C1.53245 3.85169 1.87225 3.71094 2.22656 3.71094H16.7734C17.1278 3.71094 17.4676 3.85169 17.7181 4.10222C17.9686 4.35276 18.1094 4.69256 18.1094 5.04688V13.9531Z" fill="#282828" stroke="#282828" stroke-width="0.5"/>
</g>
<defs>
<clipPath id="clip0_3086_305">
<rect width="19" height="19" fill="white"/>
</clipPath>
</defs>
</svg>
