<svg width="32" height="32" viewBox="0 0 32 32" fill="none" xmlns="http://www.w3.org/2000/svg">
<path d="M28.89 22C27.7065 20.137 26.3215 18.4099 24.76 16.85C24.7316 16.8145 24.7161 16.7704 24.7161 16.725C24.7161 16.6796 24.7316 16.6355 24.76 16.6C26.1037 14.766 27.2912 12.8225 28.31 10.79C28.4574 10.4992 28.5274 10.1753 28.5134 9.84953C28.4994 9.52378 28.4018 9.20711 28.23 8.93C28.0733 8.64835 27.8442 8.41365 27.5664 8.25015C27.2887 8.08666 26.9723 8.0003 26.65 8H23.65C23.2693 8.00738 22.8986 8.12329 22.5815 8.33409C22.2644 8.54489 22.0141 8.84183 21.86 9.19C20.9886 11.1172 19.9443 12.9614 18.74 14.7V9.8C18.7413 9.56325 18.6957 9.32859 18.6057 9.1096C18.5157 8.89062 18.3831 8.69166 18.2157 8.52425C18.0483 8.35684 17.8494 8.2243 17.6304 8.13431C17.4114 8.04432 17.1767 7.99867 16.94 8H12.56C12.305 8.00396 12.056 8.0775 11.8397 8.21266C11.6235 8.34783 11.4482 8.53949 11.333 8.76696C11.2177 8.99443 11.1667 9.24906 11.1856 9.50338C11.2044 9.75769 11.2924 10.002 11.44 10.21L11.84 10.77C12.0545 11.0781 12.1697 11.4445 12.17 11.82V15.66C10.8499 13.7071 9.80039 11.5845 9.04999 9.35C8.91467 8.95624 8.65984 8.61453 8.32104 8.37253C7.98223 8.13053 7.57635 8.00029 7.15999 8H4.70999C4.44967 8.00311 4.19341 8.06493 3.96031 8.18086C3.72721 8.29678 3.52328 8.46382 3.36372 8.66953C3.20415 8.87523 3.09307 9.11429 3.03875 9.3689C2.98443 9.6235 2.98827 9.88708 3.04999 10.14C4.39999 15.87 7.22999 20.62 10.82 23.14C11.0351 23.2928 11.302 23.3544 11.5624 23.3114C11.8227 23.2683 12.0555 23.124 12.21 22.91C12.2872 22.8031 12.3426 22.682 12.3728 22.5537C12.4031 22.4253 12.4076 22.2923 12.3863 22.1621C12.3649 22.032 12.318 21.9074 12.2483 21.7955C12.1785 21.6836 12.0874 21.5865 11.98 21.51C8.83999 19.31 6.33999 15.12 5.06999 10H7.16999C8.09022 12.7959 9.47641 15.4161 11.27 17.75C11.4773 18.0149 11.7628 18.2077 12.0859 18.301C12.409 18.3944 12.7534 18.3835 13.07 18.27C13.3948 18.1567 13.6759 17.9442 13.8733 17.6625C14.0707 17.3807 14.1745 17.044 14.17 16.7V11.82C14.1721 11.1843 14.0139 10.5583 13.71 10H16.71V15.43C16.7064 15.8185 16.8308 16.1975 17.0639 16.5083C17.297 16.8191 17.626 17.0446 18 17.15C18.3628 17.2708 18.7554 17.2686 19.1169 17.1439C19.4784 17.0192 19.7888 16.7788 20 16.46C21.4204 14.4336 22.6332 12.2694 23.62 10H26.42C25.4668 11.8741 24.3667 13.6697 23.13 15.37C22.8181 15.7872 22.6667 16.3026 22.7035 16.8222C22.7402 17.3418 22.9626 17.8308 23.33 18.2C24.7885 19.6697 26.1013 21.2772 27.25 23H23.9C22.8665 21.2893 21.4787 19.8197 19.83 18.69C19.5826 18.5087 19.2894 18.4005 18.9836 18.3775C18.6778 18.3545 18.3717 18.4178 18.1 18.56C17.8206 18.703 17.5866 18.9209 17.4241 19.1893C17.2616 19.4578 17.1771 19.7662 17.18 20.08V22.46C17.1855 22.5989 17.1361 22.7345 17.0426 22.8373C16.949 22.9402 16.8188 23.0022 16.68 23.01H15.82C15.5548 23.01 15.3004 23.1154 15.1129 23.3029C14.9253 23.4904 14.82 23.7448 14.82 24.01C14.82 24.2752 14.9253 24.5296 15.1129 24.7171C15.3004 24.9046 15.5548 25.01 15.82 25.01H16.68C17.0118 25.0074 17.3398 24.9393 17.6452 24.8096C17.9506 24.6799 18.2274 24.4912 18.4596 24.2543C18.6919 24.0173 18.8751 23.7369 18.9987 23.429C19.1224 23.1211 19.1839 22.7918 19.18 22.46V20.69C20.3829 21.5948 21.4013 22.7218 22.18 24.01C22.3519 24.3079 22.5978 24.5565 22.8938 24.7317C23.1899 24.9069 23.5261 25.0027 23.87 25.01H27.25C27.5956 25.0109 27.9351 24.9184 28.2325 24.7424C28.53 24.5664 28.7744 24.3134 28.94 24.01C29.1099 23.7004 29.1947 23.3513 29.1859 22.9983C29.1771 22.6452 29.075 22.3008 28.89 22Z" fill="white"/>
</svg>
