<svg width="27" height="18" viewBox="0 0 27 18" fill="none" xmlns="http://www.w3.org/2000/svg">
<path d="M25.89 14C24.7065 12.137 23.3215 10.4099 21.76 8.85C21.7316 8.81452 21.7161 8.77044 21.7161 8.725C21.7161 8.67956 21.7316 8.63547 21.76 8.6C23.1037 6.76599 24.2912 4.82251 25.31 2.79C25.4574 2.49916 25.5274 2.17528 25.5134 1.84953C25.4994 1.52378 25.4018 1.20711 25.23 0.929998C25.0733 0.648345 24.8442 0.413645 24.5664 0.25015C24.2887 0.0866553 23.9723 0.000296159 23.65 -2.42495e-06H20.65C20.2693 0.0073844 19.8986 0.12329 19.5815 0.334091C19.2644 0.544891 19.0141 0.841827 18.86 1.19C17.9886 3.11716 16.9443 4.96137 15.74 6.7V1.8C15.7413 1.56325 15.6957 1.32859 15.6057 1.1096C15.5157 0.890617 15.3831 0.691659 15.2157 0.524249C15.0483 0.356838 14.8494 0.224302 14.6304 0.134313C14.4114 0.0443243 14.1767 -0.00132879 13.94 -2.42495e-06H9.55999C9.30501 0.003962 9.05595 0.077496 8.83971 0.212661C8.62346 0.347826 8.44824 0.539488 8.33296 0.766958C8.21768 0.994427 8.16673 1.24906 8.18559 1.50338C8.20445 1.75769 8.29241 2.00202 8.43999 2.21L8.83999 2.77C9.05454 3.07813 9.1697 3.44453 9.16999 3.82V7.66C7.84993 5.70714 6.80039 3.58452 6.04999 1.35C5.91467 0.956242 5.65984 0.614534 5.32104 0.37253C4.98223 0.130527 4.57635 0.000294898 4.15999 -2.42495e-06H1.70999C1.44967 0.00311016 1.19341 0.0649334 0.960313 0.180859C0.727213 0.296785 0.523281 0.463823 0.363717 0.669527C0.204153 0.87523 0.0930716 1.11429 0.0387507 1.3689C-0.0155701 1.6235 -0.0117292 1.88708 0.0499874 2.14C1.39999 7.87 4.22999 12.62 7.81999 15.14C8.03514 15.2928 8.30199 15.3544 8.56237 15.3114C8.82275 15.2683 9.05553 15.124 9.20999 14.91C9.28723 14.8031 9.34256 14.682 9.37282 14.5537C9.40307 14.4253 9.40764 14.2923 9.38626 14.1621C9.36488 14.032 9.31798 13.9074 9.24826 13.7955C9.17853 13.6836 9.08736 13.5865 8.97999 13.51C5.83999 11.31 3.33999 7.12 2.06999 2H4.16999C5.09022 4.79589 6.47641 7.41613 8.26999 9.75C8.47729 10.0149 8.76278 10.2077 9.08591 10.301C9.40905 10.3944 9.75338 10.3835 10.07 10.27C10.3948 10.1567 10.6759 9.94421 10.8733 9.66245C11.0707 9.3807 11.1745 9.044 11.17 8.7V3.82C11.1721 3.1843 11.0139 2.55833 10.71 2H13.71V7.43C13.7064 7.81854 13.8308 8.19746 14.0639 8.5083C14.297 8.81915 14.626 9.04464 15 9.15C15.3628 9.27076 15.7554 9.26861 16.1169 9.14388C16.4784 9.01916 16.7888 8.77881 17 8.46C18.4204 6.4336 19.6332 4.26936 20.62 2H23.42C22.4668 3.87407 21.3667 5.66969 20.13 7.37C19.8181 7.78719 19.6667 8.30264 19.7035 8.82221C19.7402 9.34178 19.9626 9.83081 20.33 10.2C21.7885 11.6697 23.1013 13.2772 24.25 15H20.9C19.8665 13.2893 18.4787 11.8197 16.83 10.69C16.5826 10.5087 16.2894 10.4005 15.9836 10.3775C15.6778 10.3545 15.3717 10.4178 15.1 10.56C14.8206 10.703 14.5866 10.9209 14.4241 11.1893C14.2616 11.4578 14.1771 11.7662 14.18 12.08V14.46C14.1855 14.5989 14.1361 14.7345 14.0426 14.8373C13.949 14.9402 13.8188 15.0022 13.68 15.01H12.82C12.5548 15.01 12.3004 15.1154 12.1129 15.3029C11.9253 15.4904 11.82 15.7448 11.82 16.01C11.82 16.2752 11.9253 16.5296 12.1129 16.7171C12.3004 16.9046 12.5548 17.01 12.82 17.01H13.68C14.0118 17.0074 14.3398 16.9393 14.6452 16.8096C14.9506 16.6799 15.2274 16.4912 15.4596 16.2543C15.6919 16.0173 15.8751 15.7369 15.9987 15.429C16.1224 15.1211 16.1839 14.7918 16.18 14.46V12.69C17.3829 13.5948 18.4013 14.7218 19.18 16.01C19.3519 16.3079 19.5978 16.5565 19.8938 16.7317C20.1899 16.9069 20.5261 17.0027 20.87 17.01H24.25C24.5956 17.0109 24.9351 16.9184 25.2325 16.7424C25.53 16.5664 25.7744 16.3134 25.94 16.01C26.1099 15.7004 26.1947 15.3513 26.1859 14.9983C26.1771 14.6452 26.075 14.3008 25.89 14Z" fill="white"/>
</svg>
