<svg width="38" height="38" viewBox="0 0 38 38" fill="none" xmlns="http://www.w3.org/2000/svg">
<path d="M34.3069 26.125C32.9015 23.9127 31.2568 21.8618 29.4025 20.0094C29.3688 19.9673 29.3504 19.9149 29.3504 19.861C29.3504 19.807 29.3688 19.7547 29.4025 19.7125C30.9981 17.5346 32.4083 15.2268 33.6181 12.8132C33.7931 12.4678 33.8763 12.0832 33.8597 11.6964C33.8431 11.3095 33.7272 10.9335 33.5231 10.6044C33.337 10.2699 33.065 9.99124 32.7352 9.79709C32.4053 9.60294 32.0296 9.50039 31.6469 9.50003H28.0844C27.6323 9.50881 27.1921 9.64644 26.8156 9.89677C26.4391 10.1471 26.1418 10.4997 25.9588 10.9132C24.924 13.2017 23.6839 15.3917 22.2538 17.4563V11.6375C22.2553 11.3564 22.2011 11.0777 22.0943 10.8177C21.9874 10.5576 21.83 10.3214 21.6312 10.1226C21.4324 9.92378 21.1962 9.76639 20.9361 9.65953C20.6761 9.55267 20.3974 9.49846 20.1163 9.50003H14.915C14.6122 9.50474 14.3165 9.59206 14.0597 9.75257C13.8029 9.91308 13.5948 10.1407 13.4579 10.4108C13.321 10.6809 13.2605 10.9833 13.2829 11.2853C13.3053 11.5873 13.4098 11.8774 13.585 12.1244L14.06 12.7894C14.3148 13.1553 14.4515 13.5904 14.4519 14.0363V18.5963C12.8843 16.2773 11.638 13.7567 10.7469 11.1032C10.5862 10.6356 10.2836 10.2298 9.88126 9.94242C9.47893 9.65504 8.99694 9.50039 8.50251 9.50003H5.59314C5.28401 9.50373 4.9797 9.57714 4.7029 9.71481C4.42609 9.85247 4.18392 10.0508 3.99444 10.2951C3.80496 10.5394 3.67305 10.8233 3.60854 11.1256C3.54404 11.4279 3.5486 11.7409 3.62189 12.0413C5.22501 18.8457 8.58564 24.4863 12.8488 27.4788C13.1043 27.6603 13.4211 27.7334 13.7303 27.6823C14.0395 27.6311 14.316 27.4598 14.4994 27.2057C14.5911 27.0787 14.6568 26.9349 14.6927 26.7825C14.7287 26.6301 14.7341 26.4721 14.7087 26.3176C14.6833 26.1631 14.6276 26.0151 14.5448 25.8822C14.462 25.7493 14.3538 25.6341 14.2263 25.5432C10.4975 22.9307 7.52876 17.955 6.02064 11.875H8.51439C9.60716 15.1952 11.2533 18.3067 13.3831 21.0782C13.6293 21.3927 13.9683 21.6216 14.352 21.7325C14.7358 21.8434 15.1447 21.8305 15.5206 21.6957C15.9064 21.5612 16.2401 21.3088 16.4745 20.9742C16.709 20.6396 16.8322 20.2398 16.8269 19.8313V14.0363C16.8294 13.2814 16.6416 12.5381 16.2806 11.875H19.8431V18.3232C19.8389 18.7845 19.9866 19.2345 20.2634 19.6036C20.5403 19.9728 20.9309 20.2405 21.375 20.3657C21.8059 20.5091 22.272 20.5065 22.7013 20.3584C23.1307 20.2103 23.4992 19.9249 23.75 19.5463C25.4367 17.1399 26.8769 14.5699 28.0488 11.875H31.3738C30.2419 14.1005 28.9355 16.2328 27.4669 18.2519C27.0966 18.7473 26.9168 19.3594 26.9604 19.9764C27.004 20.5934 27.2681 21.1741 27.7044 21.6125C29.4364 23.3579 30.9953 25.2668 32.3594 27.3125H28.3813C27.154 25.2811 25.506 23.5359 23.5481 22.1944C23.2544 21.9792 22.9062 21.8506 22.543 21.8233C22.1799 21.796 21.8164 21.8711 21.4938 22.04C21.162 22.2098 20.8841 22.4686 20.6912 22.7874C20.4982 23.1062 20.3978 23.4724 20.4013 23.845V26.6713C20.4078 26.8363 20.3491 26.9972 20.2381 27.1194C20.127 27.2416 19.9724 27.3152 19.8075 27.3244H18.7863C18.4713 27.3244 18.1693 27.4495 17.9466 27.6722C17.7239 27.8949 17.5988 28.197 17.5988 28.5119C17.5988 28.8269 17.7239 29.1289 17.9466 29.3516C18.1693 29.5743 18.4713 29.6994 18.7863 29.6994H19.8075C20.2015 29.6963 20.591 29.6154 20.9537 29.4614C21.3163 29.3074 21.645 29.0833 21.9208 28.802C22.1967 28.5206 22.4142 28.1876 22.561 27.8219C22.7078 27.4563 22.781 27.0653 22.7763 26.6713V24.5694C24.2047 25.6439 25.4141 26.9822 26.3388 28.5119C26.5429 28.8657 26.8349 29.1609 27.1864 29.3689C27.538 29.5769 27.9372 29.6908 28.3456 29.6994H32.3594C32.7698 29.7004 33.1729 29.5906 33.5261 29.3816C33.8793 29.1726 34.1696 28.8722 34.3663 28.5119C34.568 28.1442 34.6687 27.7297 34.6583 27.3105C34.6479 26.8912 34.5266 26.4822 34.3069 26.125Z" fill="#BC0000"/>
</svg>
