<svg width="19" height="19" viewBox="0 0 19 19" fill="none" xmlns="http://www.w3.org/2000/svg">
<path d="M18.7773 9.37749C18.7736 10.9843 18.4248 12.4019 17.7197 13.7193C17.0555 14.9625 16.1389 15.9978 14.9848 16.8142C13.9717 17.5304 12.8621 18.0203 11.6486 18.2726C10.3053 18.5509 8.96191 18.5212 7.62969 18.2021C6.92461 18.0314 6.24922 17.7716 5.61465 17.4265C5.50703 17.3671 5.41426 17.3634 5.29922 17.4005C3.90019 17.8496 2.50117 18.2949 1.10215 18.7402C0.942577 18.7921 0.786717 18.8404 0.627147 18.8998C0.515819 18.9406 0.508397 18.8998 0.538085 18.807C0.701366 18.3283 0.860936 17.8496 1.02422 17.3671C1.37305 16.3244 1.72187 15.2816 2.07812 14.2425C2.12637 14.1052 2.05586 14.0162 2.00019 13.9197C1.5623 13.1589 1.25058 12.35 1.05762 11.4964C0.63828 9.65581 0.786717 7.8523 1.4918 6.10445C1.9 5.09507 2.48262 4.1896 3.22851 3.38804C4.17851 2.36382 5.30293 1.6105 6.60176 1.10581C7.81523 0.634525 9.06953 0.452689 10.3609 0.530619C12.1311 0.638236 13.7416 1.22456 15.1555 2.29331C16.985 3.67378 18.1354 5.48843 18.5955 7.74097C18.718 8.31617 18.7625 8.89878 18.7773 9.37749ZM9.74121 2.03355C9.39609 2.0187 8.9916 2.05953 8.58711 2.1189C8.42754 2.14117 8.27168 2.17456 8.11582 2.21538C5.70371 2.82769 3.9707 4.26753 2.95019 6.53492C2.36016 7.84488 2.20058 9.22906 2.42324 10.6466C2.59766 11.7673 3.01328 12.799 3.66269 13.7304C3.7332 13.8343 3.74434 13.9234 3.70351 14.0384C3.42891 14.8437 3.16172 15.6527 2.89082 16.4617C2.87598 16.5062 2.83144 16.5582 2.87226 16.599C2.91309 16.6435 2.96504 16.5953 3.00957 16.5804C3.82226 16.3207 4.63496 16.0646 5.44023 15.7937C5.62578 15.7306 5.75937 15.7603 5.91894 15.8568C7.74102 16.9515 9.68926 17.241 11.7414 16.6955C13.3 16.2835 14.584 15.4337 15.6008 14.1794C16.5842 12.966 17.1334 11.5781 17.2447 10.0269C17.3301 8.8357 17.1445 7.67788 16.6695 6.57203C16.0721 5.18042 15.1406 4.06714 13.8826 3.2396C12.6506 2.43062 11.2887 2.01499 9.74121 2.03355Z" fill="#282828"/>
<path d="M5.31029 7.33275C5.32513 6.49779 5.65169 5.81126 6.28997 5.27689C6.47181 5.12474 6.69076 5.06165 6.93197 5.10247C7.03587 5.11732 7.14349 5.13216 7.24369 5.12103C7.49603 5.10247 7.64076 5.24349 7.71869 5.4513C7.95619 6.07474 8.18626 6.70189 8.42005 7.32533C8.46458 7.44408 8.45345 7.55169 8.39779 7.66302C8.25306 7.96361 8.02298 8.1974 7.7929 8.43119C7.59251 8.63529 7.58138 8.70208 7.71869 8.95072C8.38294 10.1531 9.29954 11.0882 10.5687 11.656C10.6318 11.682 10.6874 11.7265 10.7468 11.7525C10.9064 11.8304 11.0511 11.823 11.1847 11.6857C11.4445 11.4222 11.6857 11.1402 11.9195 10.8507C12.1013 10.6243 12.1867 10.591 12.4427 10.706C13.0661 10.9954 13.6599 11.3331 14.2648 11.6597C14.4652 11.7673 14.4874 11.9158 14.4577 12.1867C14.3353 13.2888 13.4929 13.7898 12.5318 13.9494C12.2089 14.0013 11.9046 13.9716 11.6003 13.8751C10.7097 13.5931 9.83392 13.2665 9.0472 12.7544C8.31244 12.2757 7.68158 11.6783 7.12865 10.9992C6.59056 10.3349 6.11185 9.63353 5.71478 8.87279C5.49212 8.43861 5.31029 7.76322 5.31029 7.33275Z" fill="#282828"/>
</svg>
